<?xml version="1.0" encoding="UTF-8"?>
<svg id="Layer_1" data-name="Layer 1" xmlns="http://www.w3.org/2000/svg" viewBox="0 0 52.62 67.72">
  <rect x=".63" y="31.56" width="50.32" height="30.55" style="fill: #d05145; stroke: #100e0f; stroke-miterlimit: 10; stroke-width: .59px;"/>
  <polygon points=".87 31.56 24.56 13.3 50.32 31.43 .87 31.56" style="fill: #f5ebba; stroke: #442640; stroke-miterlimit: 10; stroke-width: .59px;"/>
  <polyline points="5.49 31.35 5.67 .3 35.16 .3 43.01 7.51 43.01 31.35" style="fill: #f5ebba; stroke: #442640; stroke-miterlimit: 10; stroke-width: .61px;"/>
  <polygon points="35.52 1.05 35.81 7.27 42.28 7.27 35.52 1.05" style="fill: #f5ebba; stroke: #442640; stroke-miterlimit: 10; stroke-width: .6px;"/>
  <line x1="8.65" y1="8.27" x2="34.71" y2="8.44" style="fill: none; stroke: #442640; stroke-miterlimit: 10; stroke-width: .6px;"/>
  <line x1="8.63" y1="17.06" x2="38.77" y2="16.97" style="fill: none; stroke: #442640; stroke-miterlimit: 10; stroke-width: .6px;"/>
  <line x1="8.63" y1="25.57" x2="38.9" y2="25.35" style="fill: none; stroke: #442640; stroke-miterlimit: 10; stroke-width: .6px;"/>
  <text transform="translate(13.16 59.6) scale(1.1 1)" style="fill: #f5ebba; font-family: AdornSOrnaments, &apos;AdornS Ornaments&apos;; font-size: 31.63px; stroke: #442640; stroke-miterlimit: 10; stroke-width: .3px;"><tspan x="0" y="0">E </tspan></text>
  <line x1="1.8" y1="32.43" x2="15.6" y2="40.77" style="fill: #f5ebba; stroke: #442640; stroke-miterlimit: 10; stroke-width: .61px;"/>
  <line x1="29.77" y1="49.35" x2="50.32" y2="61.48" style="fill: #f5ebba; stroke: #442640; stroke-miterlimit: 10; stroke-width: .61px;"/>
  <line x1="1.86" y1="61.05" x2="17.87" y2="51.37" style="fill: #f5ebba; stroke: #442640; stroke-miterlimit: 10; stroke-width: .61px;"/>
  <line x1="34.73" y1="42.11" x2="49.95" y2="32.43" style="fill: #f5ebba; stroke: #442640; stroke-miterlimit: 10; stroke-width: .59px;"/>
</svg>