<?xml version="1.0" encoding="UTF-8"?>
<svg id="Layer_1" data-name="Layer 1" xmlns="http://www.w3.org/2000/svg" viewBox="0 0 278.77 317.22">
  <path d="M224.35,214.93c.1,7.76-.37,17.26-3.07,24.45-1.08-4.54-8.42-10.81-7.72-2.35.21,2.5,1.86,3.91,3.22,5.55,2.65,3.2,2.97,2.23.75,6.61-3.96,7.8-10.33,20.55-17.98,23.92.77-3.43,1.55-9.66-3.39-8.96-4.43.62-3.02,8.66-3.2,12.14-.2,3.95-7.81,6.22-10.25,7.19-4.66,1.86-11.04,3.39-15.92,2.33,1.38-1.95,7.95-6.74,2.63-9.3-4.45-2.14-7.5,4.01-8.73,8-.86,2.79-12.06-2.19-13.94-3.13-2.51-1.26-5.03-2.53-7.52-3.86-2.15-1.15-5.79-5.63-6.92-3.44-1.12,2.19,5.88,5.35,8.77,6.77,3.45,1.69,5.33,1.19,4.35,5.33-1.99,8.43,8.73,10.2,4.69-1.12,5.29,2.35,11.45,2.5,17.03,2.86,3.12.2,5.97.34,9.03-.5,1.82-.5,2.74,4.23,3.33,5.56,1.31,2.93,10.09,10.24,9.16,2.73-.62-5.03-4.36-7.53-8.05-9.03,5.55-2.03,10.95-5.21,15.98-8.66,2.46-1.68,5.03-3.38,7.22-5.54,2.98-2.95,2.8-4.78,5.93-1.83,2.67,2.51,14.52,6.35,14.39-1.58-.12-7.24-11.79-3.32-15.03-2.39,7.03-10.37,12.19-19.75,15.39-32.58,3.21,2.62,15.31.43,12.92-6.15-2.48-6.83-12.14,1.55-12.15,1.6.91-3.86.56-11.45,2.89-14.3,3.14-3.86,6.06-12.52.66-15.91-7.38-4.63-4.53,12.02-4.48,15.59ZM179.84,289.07c-.08-.13-.2-.38-.35-.82,2.11,1.29,9.01,3.44,7.58,8.05-1.33,4.31-5.89-4.31-7.23-7.24ZM149.71,290.85c-2.47,3.3-2.32-3.01-2.18-5.31-.01-.02,0-.22.06-.76.86.06,3.11,4.76,2.12,6.07ZM162.15,284.99c1.06-2.74,3.35-9.03,6.84-6.39,2.74,2.07-2.91,4.92-5.6,5.98-.06.12-.39.28-1.24.41ZM194.53,275.92c.19-2.8-.42-5.68.39-8.33-.18.21-.18.01.54-1.33,5.29.52,2.93,8.98-.92,9.66ZM221.7,267.92c1.99,2.09-1.14,3.09-2.34,3.41-3.06.83-6.07.11-8.54-2.11-.16-.13-.33-.27-.51-.46,2.62-1.61,8.86-3.49,11.39-.84ZM219.31,242.52c-1.23-1.44-5.37-4.82-3.99-7.44,1.7-3.22,5.28,5.75,3.99,7.44ZM225.25,232.39c.94-1.44,10.41-9.01,10.57-3.68.14,4.6-6.76,5.14-9.81,4.03.12.13,0,.13-.76-.35ZM227.52,200.97c5.72,1.36.47,11.02-.86,13.59-1.21-.37-2.75-14.45.86-13.59Z" style="fill: #4d807f; stroke-width: 0px;"/>
  <path d="M135.93,303.4c-4.9,0-6.26-10.79-6.64-17.23-.52-8.84,1.83-17.41,4.09-25.7l.14-.51c2.08-7.61,4.23-15.48,3.33-23.64-.91-8.31-4.39-17.42-9.8-25.66-.77-1.17-1.55-2.45-2.37-3.81-3.49-5.73-7.44-12.22-13.08-14.76-5.18-2.33-10.49-2.65-15.45-2.65-1.34,0-2.68.03-4.02.05-1.35.02-2.7.05-4.06.05-.44,0-.88,0-1.31,0-8.26-.12-15.79-3.43-21.2-9.35-5.63-6.15-8.49-14.71-7.83-23.48.37-4.94,1.7-14.61,3.12-14.61.89.07,1.74,2.66,2.3,4.38.26.79.48,1.48.68,1.89,1.8,3.7,3.98,6.04,6.7,8.41,3.15,2.75,7.19,4.73,11.09,6.65,2.03,1,4.13,2.03,6.02,3.14,1.7.99,14.6,11.82,15.52,12.77l.06.07.13.05h.35l-.16-.32c-3.67-7.48-7.14-15.77-7.73-25.68-.64-10.83.39-20.55,3.34-31.51l.2-.74-.56.52c-5.02,4.66-9.39,6.93-13.35,6.93-3.5,0-6.66-1.86-9.41-5.52-6.21-8.29.92-15.26,6.65-20.86,1.05-1.02,2.04-1.99,2.92-2.93l.19-.21-.25-.14c-.54-.29-1.07-.58-1.61-.86-3.78-2.01-7.34-3.91-9.42-7.87-2.65-5.06-1.74-11.57,2.15-15.5,1.98-1.99,4.27-3.01,6.81-3.01,7.18,0,14.96,8.04,19.13,12.36l.31.32.13-.38c.32-2.02.42-3.98.52-5.87.22-4.2.43-8.16,2.93-12.26,2.49-4.07,6.51-6.31,11.33-6.31,1.27,0,2.58.16,3.89.47,5.92,1.4,10.55,8.02,9.71,13.9-.94,6.55-3.32,10.83-7.66,16.89l-.3.42.52-.08c1.39-.21,2.91-.32,4.41-.32,2.82,0,9.72.43,12.95,4.43,1.58,1.95,2.05,4.48,1.4,7.53-1.48,6.96-8.35,9.44-14.28,9.44-3.24,0-6.43-.72-8.99-2.02l-.65-.33.36.64c2.47,4.41,6.61,14.54,4.63,21.29-.69,2.34-2.07,4.08-4.1,5.16-1.62.86-3.17,1.3-4.62,1.3-7.72,0-11.24-12.22-12.1-19.44l-.09-.75-.33.68c-5.15,10.63-7.8,30.44-3.37,41.88l.18.47.22-.46c4.46-9.22,8.93-15.76,17.35-19.9,4.96-2.44,7.15-2.94,8.12-2.94.78,0,.84.32.86.43.64,3.36-.28,7.5-2.72,12.29-2.55,5.02-6.98,6.63-11.66,8.33-3.3,1.2-6.7,2.44-9.44,4.97-2.38,2.2.17,7.27,1.7,10.31.29.57.54,1.07.72,1.48,2.31,5.16,5,9.01,8.22,11.77l.59.51-.24-.74c-.52-1.64.36-11.78.87-13.33,1.99-6.06,5.08-11.34,9.12-17.41,4.08-6.13,8.87-11.94,13.5-17.55,3.07-3.72,6.24-7.56,9.17-11.46.45-.6,1.08-1.32,1.75-2.09,2.93-3.36,6.94-7.97,4.61-11.52-.34-.51-.67-1.01-1-1.51-3.25-4.88-5.82-8.73-5.31-15.05.23-2.88.6-3.31.8-3.31.34,0,.99.88,1.67,1.8.36.49.76,1.03,1.2,1.57.6.74,1.18,1.42,1.74,2.07,2.62,3.08,4.69,5.52,5.62,10.12l.11.53.29-.45c5.59-8.63,8.78-16.71,9.73-24.69.31-2.6.84-23.67-1.6-26.41-.21-.23-.44-.35-.69-.35h-.2l-.03.2c-.44,4.52-4.04,20.48-10.51,20.48-1.28,0-2.64-.62-4.02-1.85-8.33-7.38-.46-23.17,3.33-30.76l.23-.45-.49.14c-1.41.42-2.94.96-4.56,1.54-4.04,1.44-8.61,3.07-12.55,3.07-.6,0-1.17-.04-1.71-.11-5.75-.79-9.61-5.85-9.18-12.02.39-5.71,5.67-9.49,10.73-10.7.87-.21,1.8-.32,2.77-.32,4.37,0,8.83,2.1,12.78,3.95l1.76.82-.35-.61c-4.33-7.44-8.89-17.66-6.08-24.1,1.22-2.79,3.76-4.64,7.56-5.5,1.33-.3,2.6-.45,3.78-.45,3.32,0,6.02,1.2,8.03,3.55,4.24,4.96,4.57,14.14,3.56,20.5l-.11.68.48-.5c3.2-3.27,7.83-5.38,11.79-5.38,2.83,0,6.61,1.04,8.55,5.99,1.51,3.86.26,8.77-2.8,10.95-2.83,2.02-5.57,2.66-8.47,3.35-1.69.4-3.44.81-5.29,1.52l-.42.16.39.23c12.94,7.86,17.98,15.88,14.99,23.86-1.02,2.73-3.29,4.23-6.38,4.23-1.62,0-3.34-.41-4.96-1.2-3.58-1.72-5.62-4.69-7.78-7.83-.69-1-1.41-2.04-2.17-3.03l-.39.18c1.05,5.51,2.09,12.06,1.88,18.82-.15,4.81-1.01,8.99-1.93,13.4-.34,1.66-.7,3.36-1.02,5.13l.39.18c5.12-6.31,10.32-10.35,16.37-12.72,2.27-.89,4.77-.96,7.2-1.02,1.81-.05,3.68-.1,5.46-.49,2.25-.49,3.93-1.55,5.56-2.57.96-.6,1.95-1.23,3.07-1.74,1.64,5.94-3.82,13.95-6.46,17.82-3.06,4.49-7.63,6.16-16.87,6.16-.92,0-1.89-.02-2.91-.05-.57-.02-1.17-.03-1.77-.03-4.09,0-7.47.47-10.05,1.41-4.74,1.72-7.39,7.06-9.72,11.78-.73,1.48-1.42,2.87-2.14,4.08-2.56,4.32-5.97,8.49-9.26,12.52-1.74,2.13-3.54,4.33-5.16,6.49-.84,1.13-1.69,2.25-2.54,3.38-4.29,5.68-8.72,11.56-12.49,17.68-3.74,6.07-6.32,13.44-7.66,21.91-1.21,7.67.12,12.18,5.49,18.55,9.76,11.59,15.36,25.44,17.1,42.34l.05.52.34-.4c1.96-2.36,4.27-4.82,6.72-7.43,10.04-10.7,22.54-24.01,17.5-38.78l-.24-.71-.18.73c-2.01,8.02-6.83,21.47-16.55,21.47-.95,0-1.94-.13-2.95-.38-5.84-1.49-7.77-8.15-7.63-13.4.14-5.75,3.35-9.86,6.74-14.2.53-.68,1.07-1.37,1.59-2.07l-.27-.33c-2.43,1.17-5.1,1.79-7.71,1.79-4.28,0-8.13-1.64-10.55-4.5-2.37-2.8-3.25-6.56-2.53-10.86,1.02-6.08,5.04-9.03,12.32-9.03,4.66,0,9.67,1.19,13.7,2.15l.87.21-.08-.34c-.36-1.63-1.36-3.22-2.32-4.76-.66-1.05-1.34-2.13-1.78-3.18-1.47-3.51-1.82-7.89-.88-11.14,1.68-5.86,6.42-12.37,12.22-13.49.71-.14,1.43-.2,2.17-.2,5.6,0,11.11,4.02,12.81,9.34.98,3.07.59,6.26.21,9.35l-.06.48c-.04.3-.22,1.14-.44,2.11-.99,4.42-1.16,5.63-.82,5.91l.14.11.14-.12c4.69-3.89,8.24-6.49,14.61-7.26.74-.09,1.48-.13,2.18-.13,3.45,0,7.98,1.09,9.99,6.26,1.45,3.72,1.36,7.16-.25,10.22-3.74,7.1-14.68,10.59-20.87,12.05l-.62.15.58.27c5.45,2.52,14.12,8.8,15.69,15.75.67,2.94-.04,5.68-2.09,8.16-1.87,2.26-4.69,3.41-8.38,3.41-1.71,0-3.55-.25-5.47-.74-2.37-.61-4.32-1.78-5.64-3.37-.52-.63-1.06-1.76-1.63-2.95-1.04-2.17-2.21-4.63-3.75-5.08l-.33-.09.05.34c1.51,10.77-1.18,19.99-8.23,28.19-.96,1.12-1.97,2.27-3,3.44-6.47,7.35-13.8,15.68-16.44,24.77l-.23.8.6-.58c.71-.68,1.38-1.34,2.03-1.99,4.44-4.37,7.95-7.82,14.31-10.58,1.55-.67,3.12-1.32,4.68-1.96,5.87-2.41,11.94-4.9,17.03-8.96.34-.27.7-.55,1.06-.83,2.44-1.89,4.96-3.85,6.21-6.64.38-.85,1.34-2.11,1.69-2.11.06.06.19.29.06,1.26-.33,2.58-.22,5.11-.12,7.57.08,1.8.16,3.67.06,5.55-.19,3.84-1.24,7.76-2.25,11.56-.25.92-.49,1.82-.71,2.72-1.65,6.5-7.66,12.89-14.29,15.18-1.63.56-3.4.84-5.39.84-2.67,0-5.44-.49-8.12-.97-2.73-.49-5.55-.99-8.31-.99-1.48,0-2.82.14-4.11.43-3.3.75-5.67,2.3-7.04,4.62-3.15,5.31-.77,13.65,1.32,21.01,1.86,6.53,3.47,12.16.29,13.22-.43.14-.85.21-1.24.21Z" style="fill: #fca67f; stroke-width: 0px;"/>
  <path d="M163.34,187.62c-10.99.01-11.3-16.1-.61-16.95,10.96-1.02,11.79,16.93.61,16.95Z" style="fill: #eef1f3; stroke-width: 0px;"/>
  <path d="M162.04,45.56c-6.82.48-6.77-11.49-.75-11.81,7.21-.39,8.24,11.81.75,11.81Z" style="fill: #eef1f3; stroke-width: 0px;"/>
  <path d="M112.09,106.54c-3.62,2.09-8.99.91-10.04-3.76-2.48-10.95,11.68-11.7,13.05-1.63.31,2.3-1.94,4.76-3.01,5.39Z" style="fill: #eef1f3; stroke-width: 0px;"/>
  <path d="M186.61,153.19c-6.35.75-9.92,3.32-14.73,7.3-.46-.38,1.22-6.79,1.35-7.81.4-3.33.88-6.66-.16-9.93-1.96-6.13-8.82-10.52-15.24-9.29-6.12,1.18-10.78,8.04-12.39,13.64-1.01,3.51-.51,7.94.89,11.29,1.09,2.59,3.5,5.19,4.09,7.89-8.97-2.12-24.63-6.12-26.81,6.94-2.19,13.09,10.62,18.84,21.1,13.8-3.81,5.05-8.21,9.64-8.38,16.4-.13,5.41,1.86,12.11,7.8,13.62,12.04,3.06,17.6-12.55,19.77-21.24,6.18,18.11-13.92,33.67-24.18,45.99-1.64-15.94-6.71-30.07-17.15-42.46-5.06-6.01-6.71-10.34-5.44-18.38,1.2-7.57,3.58-15.26,7.63-21.83,4.51-7.31,9.88-14.17,15.03-21.04,4.65-6.22,10.49-12.39,14.43-19.04,3.02-5.09,5.62-13.54,11.74-15.75,3.53-1.28,8.01-1.48,11.74-1.37,11.17.35,16.51-1.13,19.97-6.21,3.14-4.6,8.25-12.39,6.42-18.25-3.14,1.37-5.19,3.61-8.81,4.4-4.15.9-8.7-.05-12.7,1.52-6.75,2.64-11.93,7.2-16.46,12.79,1.17-6.46,2.74-11.91,2.94-18.57.2-6.39-.69-12.6-1.88-18.86,3.09,3.98,5.21,8.6,10.04,10.92,4.28,2.07,9.78,1.82,11.64-3.15,4.1-10.9-7.3-19.4-15.08-24.12,4.99-1.9,9.28-1.67,13.8-4.89,3.33-2.37,4.35-7.47,2.88-11.21-3.69-9.41-14.88-6.64-20.71-.69,1.72-10.87-.54-27.25-15.64-23.84-15.39,3.47-6.33,21.81-1.61,29.92-4.93-2.28-11.15-5.54-16.82-4.18-5.3,1.28-10.5,5.15-10.9,10.91-.41,5.91,3.2,11.39,9.37,12.25,5.84.8,13.38-2.87,18.92-4.51-3.86,7.75-11.71,23.56-3.28,31.02,9.59,8.49,14.42-13.79,14.91-18.77,2.98-.07,2.42,23.74,2.08,26.52-1.06,8.9-4.86,17.14-9.69,24.6-1.15-5.64-3.94-8.02-7.41-12.29-2.44-3.01-3.57-6.02-4.05.05-.57,7.04,2.65,11.09,6.34,16.7,2.78,4.23-4,10.23-6.35,13.35-7.37,9.79-15.89,18.83-22.68,29.03-3.68,5.53-7.06,11.11-9.15,17.46-.49,1.49-1.43,11.73-.87,13.47-3.66-3.13-6.2-7.3-8.16-11.69-1.14-2.54-5.16-9.05-2.48-11.53,6.49-6.01,16.7-4.63,21.15-13.37,1.86-3.67,3.53-8.27,2.74-12.44-.39-2.05-8.04,1.75-9.3,2.36-8.92,4.38-13.28,11.39-17.46,20-4.42-11.4-1.83-30.99,3.37-41.7.96,8.04,5.63,24.38,17.04,18.31,8.95-4.76,3.11-20.4-.45-26.75,7.85,4,21.45,2.48,23.59-7.57,2.44-11.43-11.12-13.07-19-11.91,3.98-5.56,6.71-10.06,7.7-16.99.88-6.16-3.96-12.75-9.88-14.14-6.05-1.44-12.03.33-15.46,5.94-3.68,6.02-2.46,11.75-3.48,18.21-5.7-5.89-17.56-18.22-26.31-9.42-4.03,4.06-4.82,10.74-2.19,15.75,2.4,4.6,6.81,6.47,11.11,8.83-5.82,6.23-17.02,14.13-9.58,24.08,7.23,9.65,15.91,5.28,23.09-1.39-2.87,10.67-4,20.55-3.35,31.58.56,9.34,3.66,17.41,7.74,25.76,0-.01-.02-.02-.03-.04-.81-.84-13.81-11.78-15.57-12.81-5.47-3.2-12.27-5.58-17.07-9.76-2.89-2.52-4.96-4.86-6.65-8.33-.68-1.41-1.72-6.29-3.15-6.39-2-.15-3.25,13.16-3.37,14.81-1.32,17.74,11.28,32.82,29.25,33.07,8.44.12,16.78-1.05,24.76,2.54,6.9,3.12,11.36,12.4,15.35,18.49,4.91,7.48,8.78,16.61,9.76,25.56.91,8.25-1.27,16.05-3.41,23.91-2.33,8.52-4.67,17-4.15,25.92.21,3.59,1.26,19.51,8.17,17.21,8.48-2.82-14.53-34.33,5.41-38.84,8.59-1.94,17.62,3.57,25.95.69,6.5-2.25,12.72-8.58,14.43-15.33,1.18-4.64,2.74-9.54,2.98-14.33.22-4.44-.52-8.64.05-13.09.42-3.27-1.66-.41-2.17.72-1.41,3.16-4.57,5.3-7.2,7.39-6.41,5.09-14.23,7.66-21.66,10.88-7.32,3.18-10.85,7.23-16.41,12.61,3.05-10.48,12.42-20,19.41-28.13,7.11-8.27,9.78-17.67,8.28-28.36,1.74,3,3.79,6.17,5.27,7.96,1.47,1.77,3.55,2.87,5.76,3.43,4.74,1.23,10.68,1.36,14.07-2.73,7.96-9.61-5.85-20.63-13.67-24.26,9.99-2.34,26.65-8.7,21.27-22.55-2.1-5.41-7.12-6.89-12.4-6.26ZM175.44,23.37c5.06-2.53,11.6-1.9,13.73,3.93,1.79,4.89-1.31,8.53-5.27,10.79-1.76,1.01-15.51,4.36-15.28,1.47-.05.02,5.17-1.55,2.87-2.37-2.02.81-3.13,1.2-3.73-1.3,2.14-1.6,4.68-2.64,6.69-4.2-2.93-2.05-5.74,1.01-7.66,3.07-2.44-1.94,6.56-10.35,8.65-11.39ZM153.64,3.74c15.85-5.68,20.6,22.34,9.8,29.54,0-1.16.59-7.76-.65-7.81-1.79-.08-.87,6.29-1.24,7.56-1.4-2.43-3.47-4.92-3.61-7.83-.09-1.95.46-5.92-.42-5.94-3.15-.09-4.05,7.87,2.13,13.78-.15.08-.29.13-.42.17-6.5,2.12-19.8-24.37-5.59-29.47ZM134.51,48.94c-6.62-.76-9.32-8.14-6.81-13.68,3.68-8.1,14.69-6.28,21.03-3.53.89.39,8.54,4.83,6.93,5.53-1.3.56-6.14-1.01-6.45.73-.32,1.75,6.51-.44,6.52,1.05,0,1.48-14.78,1.51-14.82,3.36-.06,2.93,11.17.22,14.78-1.37,1.54,4.05-18.53,8.22-21.18,7.91ZM163.02,54.85c.16,5.79-.33,15.38-5.06,19.49-8.18,7.11-10.33-6.15-8.8-13.29.46-2.14,6.27-16.93,8.45-15.94.09-.02.21.08.38.4-.95,2.37-2.48,6.22-1.35,6.57,1.13.34,2.35-5.87,3.15-5.3.8.58-2.03,6.1-.99,6.36,1.03.26,2.22-6.62,2.98-6.35,1.71.61,1.2,6.6,1.24,8.06ZM162.04,45.01c-6.19.44-6.15-10.44-.68-10.73,6.55-.35,7.48,10.73.68,10.73ZM165.85,45.34c1.12,2.72,2.53,7.44,5.94,7.99-.33-2.52-3.18-5.53-4.4-7.86.88-.74,3.37,1.55,4.19,2.08.03-.08.06-.15.07-.21.83-2.22-2.75-3.49-4.17-4.37,9.18-2.76,28.7,19.88,17.85,25.36-13.18,6.66-20.72-22.75-19.48-22.99ZM184.06,84.9c6.06-1.66,11.76-.76,17.67-3.57.87,1.02-6.22,7.56-7.27,8.38-2.61,2.04-6.04,3.93-9.36,4.34-3.33.41-6.81-.03-10.09.5-1.07.17-6.6,2.46-7.07,1.93,4.64-5.04,9.28-9.71,16.12-11.58ZM165.43,100.7c2.97-5.26,13.17-4.1,17.99-4.5,7.78-.64,12.85-5.68,18.07-10.9-2.6,6.83-7.06,13.78-15.08,14.64-7.16.78-14.2.22-21.37,1.52.14-.35.27-.59.39-.76ZM147.42,97.28c4.31,4.77,10.77,10.11,7.05,17.25-3.57-4.97-8.54-10.55-7.05-17.25ZM124.74,139.5c.49,4.87-2.14,12.53-6.52,15.06-1.33.77-11.78,7.19-13.33,5.57,4.14-3.28,8.53-6.42,12.21-10.21,1.62-1.67,3.87-3.93,4.52-6.22.46-1.63,1.02-4.05,3.12-4.2ZM106.55,151.05c3.39-4.47,8.65-8.31,14.04-10.02.18-.07.38-.14.61-.2-1.97,9.25-14.05,14.37-19.75,20.94-.6-3.21,3.38-8.45,5.1-10.72ZM116.32,136.59c-5.85,1.32-9.7-7.23-10.79-11.6-.79-3.17-2.54-15.25,1.64-16.65.47,1.96-.54,17.17,4.49,16.18-.76-4.61-4.06-9.21-3.04-14.17,1.2-5.89,3.45,3.31,5.09,2.62,1.63-.69-2.37-4.87.18-7.07,5.2,6.4,16.29,27.58,2.43,30.69ZM102.83,102.53c-2.18-9.61,10.25-10.27,11.45-1.43.27,2.02-1.7,4.18-2.64,4.73-3.18,1.83-7.89.8-8.81-3.3ZM141.08,97.89c2.68,5.74-3.08,11.16-8.13,12.29-3.68.82-8.19.48-11.69-.94-.98-.4-7.22-4.43-6.45-5.33,3.49,2.72,14.93,3.28,14.47.87-.46-2.42-11.25-.75-13.34-1.96-2.64-1.54,2.97-.95,3.41-1.01,1.66-.2,5.31-1.29,5.16-2.65-.15-1.35-6.39.77-9.02.77-1.24-3.28,3.22-5.13,6.23-6.25,6.35-2.35,15.89-3.2,19.36,4.21ZM123.12,62.08c7.09,3.21,7.96,11.97,5.47,18.55-2.77,7.29-8.51,11.61-14.97,15.34-2.79-2.94-.21-1.84.78-4.91.11-.36,1.16-3.26.31-3.43-1.17-.22-2.42,5.68-4.75,5.68-.36-4.49.32-8.46,2.08-11.72.36-.65,5.53-5.53,4.49-6.88s-5.99,6.18-6.3,6.75c-1.93,3.66-.64,8.66-2.49,11.86-6.01-10.53-2.95-39.56,15.38-31.24ZM79.59,93.77c-5.19-3.96-7.26-12.76-2.23-17.78,4.55-4.53,13.29-2.16,17.46,1.8,4.66,4.42,7.64,9.33,10.38,15.05-3.24,1.24-4.89-6.17-6.27-3.85s3.78,4.45,3.25,5.4c-3.94.75-9.44-7.04-11.15-5.9s6.23,6.59,7.71,7.23c-7.11,1.48-12.83,2.88-19.15-1.95ZM76.77,121.58c-3.67-6.05.71-13.82,5.6-17.83,6.02-4.94,11.68-3.22,18.56-5.72-.25,4.93-2.42,3.57-6.4,6.02-.58.35-3.51,3.67-2.95,4.49.57.81,4.33-3.58,7.16-4.54.55-.19,4.26-.78,2.8,1.4-2.93,4.38-11.54,6.04-11.11,8.71.43,2.68,9.99-2.92,12.63-8.07,1.76,12.34-17.14,30.62-26.29,15.54ZM83.75,166.4c4.23,2.53,8.55,4.9,12.21,8.27.97.9,8.6,7.81,8.19,8.41-14.15-7.05-39.42-13.1-41.14-32.61,5.15,7.94,12.9,11.26,20.74,15.93ZM60.76,151.98c.03-.33.12-.84.32-1.63,3.09,9.66,8.05,17.56,17.01,22.98,8.06,4.89,18.02,6.44,25.73,12.09-9.5-1-21.37-.95-29.47-6.62-7.59-5.31-15.09-16.91-13.59-26.82ZM72.65,184.41c-4.76-2.67-8.65-7.62-10.79-12.57-.66-1.53-2.82-13.69-2.71-13.65,4,10.68,7.55,19.42,18.49,24.55,5.25,2.46,11.25,3.17,16.96,3.78,3.64.39,12.86.02,15.24,3.03-11.84-5.24-25.59,1.37-37.19-5.14ZM163.53,239.86c4.08-1.68,8-3.19,11.7-5.66.93-.62,6.77-5.98,7.18-5.72-.09.16-.15.28-.19.36-3.88,7.62-9.2,15.76-18.04,17.95-4.51,1.11-9.16,1.01-13.63,2.44-3.29,1.05-6.6,4.8-9.87,5.23,6.95-7.49,13.46-10.72,22.85-14.6ZM150.8,251.09c4.34-1.31,8.99-1.47,13.41-2.48,8.31-1.9,12.98-8.26,17.69-14.9-1.78,8.19-6.9,20.6-16.19,22.75-4.53,1.06-10.36-.95-15.1-1.13-4.73-.18-9.97,2.65-11.65,3.56,3.36-3.15,7.37-6.45,11.84-7.8ZM148.66,257.4c5.76-.22,12.22,2.18,17.79.99,10.19-2.18,17.42-17.86,17.42-27.22.58,3.58.27,1.94.1.78,1.37,10.54-3.43,25.01-13.08,30.15-5.53,2.94-11.48,1.14-17.36.42-6.8-.83-11.15.5-17.2,3.03,2.77-4.46,6.84-7.93,12.33-8.15ZM146.83,153.43c-.59-3.79.39-7.72,2.39-10.95,1.47-2.36,5.45-7.11,8.41-7.23,19.68-.76,15.78,24.1,7.54,34.61-.83-.78-.04-13.22-2.15-12.97-2.12.25,1.29,13.42.08,12.75-7.88-4.31-5.44-22.69-7.09-22.69s-1.01,6.12-1.1,8.99c-.17,5.11,2.24,10.05,4.86,14.2-.08.07-.15.11-.22.15-5.07,3.49-12.25-13.85-12.72-16.86ZM129.74,185.42c-4.82-3.98-6.73-13.83-1.25-18.19,5.15-4.11,16.69-1.24,22.14.94,1.48.59,6.2,3.19,4.98,5.32-2.09,3.65-6.49-.66-7.11,1.29s9.1,4.36,2.31,4.67c-3.82.18-10.36-3.37-10.9-1.7-.53,1.67,7.92,3.52,11.89,3.99-5.69,2.77-16.03,8.66-22.06,3.68ZM155.32,211.21c-4.06,4.72-12.34,6.71-15.83.09-3.46-6.58-.41-14.71,3.79-20.07,2.39-3.05,5.3-5.91,8.85-7.57,2.82-1.32,2.9.02,4.16,2.54-.63.78-3.44,3.33-3.19,4.48.25,1.16,1.26.5,1.61.01,1.78-2.45,2.24-3.74,5.04-2.6-1.45,1.98-5.39,5.1-3.93,6.34s3.55-4.79,6.23-6.24c.98,8.25-1.24,16.64-6.73,23.02ZM163.32,186.72c-9.84.01-10.11-14.41-.55-15.17,9.81-.91,10.55,15.15.55,15.17ZM177.98,184.06c5.64,2.72,13.01,8.22,14,14.84,1.39,9.26-10.01,10.45-16.29,7.36-6.07-2.98-8.64-11.85-10.6-17.79,3.39-1.5,3.02.41,5.15,3.02,1.12,1.37,3.57,3.79,4.53,2.56.96-1.22-7.58-6.42-4.72-8.68,1.37,2.01,5.81,3.48,2.41.81-1.31-1.03-1.53-2.73-.7-4.15,2.08.65,4.24,1.08,6.22,2.03ZM188.96,177.01c-4.13,2.42-16.01,6.27-16.94-.53.63-.06,1.08-.1,1.41-.11,2.12-.18,5.51-1.97,5.15-2.81s-6.47,2.4-8.91-.58c2.86.15,9.89-5.66,8.32-7.28s-5.44,4.33-9.06,6.27c-3.02-1.45,2.73-8.56,4.05-9.99,4.75-5.12,15.38-10.77,21.77-5.25,7.96,6.89,1.04,16.27-5.79,20.28Z" style="fill: #435b3c; stroke-width: 0px;"/>
  <g>
    <path d="M106.64,97.26c-.21-.41-.73-.58-1.15-.36-.42.22-.6.73-.38,1.14s.92.96,1.35.74c.42-.22.4-1.11.19-1.53Z" style="fill: #435b3c; stroke-width: 0px;"/>
    <path d="M110.88,98.46c.32-.34.29-.88-.06-1.2s-.89-.31-1.2.03c-.32.34-.59,1.19-.24,1.52s1.18,0,1.5-.35Z" style="fill: #435b3c; stroke-width: 0px;"/>
    <path d="M165.03,39.17c.32-.34.29-.88-.06-1.2s-.89-.31-1.2.03c-.32.34-.59,1.19-.24,1.52.35.32,1.18,0,1.5-.35Z" style="fill: #435b3c; stroke-width: 0px;"/>
    <path d="M161.72,36.32c-.46-.08-.9.23-.98.7-.09.47.22.91.68,1s1.32-.15,1.41-.62c.09-.47-.64-.99-1.1-1.08Z" style="fill: #435b3c; stroke-width: 0px;"/>
    <path d="M160.03,38.72c-.23-.4-.75-.54-1.17-.3-.41.24-.56.76-.33,1.16.23.4.97.91,1.38.68.41-.24.35-1.13.11-1.53Z" style="fill: #435b3c; stroke-width: 0px;"/>
    <path d="M164.65,42.73c.3-.36.24-.9-.13-1.2-.37-.3-.9-.26-1.2.1-.3.36-.51,1.23-.15,1.53.37.3,1.18-.08,1.48-.44Z" style="fill: #435b3c; stroke-width: 0px;"/>
    <path d="M159.88,41.61c-.11.45.18.91.65,1.02.46.11.92-.17,1.03-.63.11-.45-.09-1.33-.55-1.44-.46-.11-1.02.59-1.13,1.05Z" style="fill: #435b3c; stroke-width: 0px;"/>
    <path d="M112.65,101.5c.21-.42.04-.93-.39-1.14-.42-.21-.94-.05-1.15.36-.21.42-.23,1.31.19,1.52s1.13-.33,1.34-.75Z" style="fill: #435b3c; stroke-width: 0px;"/>
    <path d="M168.46,178.99c.21-.42.04-.93-.39-1.14-.42-.21-.94-.05-1.15.36-.21.42-.23,1.31.19,1.52.42.21,1.13-.33,1.34-.75Z" style="fill: #435b3c; stroke-width: 0px;"/>
    <path d="M161.42,179.39c.21-.42.04-.93-.39-1.14-.42-.21-.94-.05-1.15.36-.21.42-.23,1.31.19,1.52.42.21,1.13-.33,1.34-.75Z" style="fill: #435b3c; stroke-width: 0px;"/>
    <path d="M158.75,178.65c.21-.42.04-.93-.39-1.14-.42-.21-.94-.05-1.15.36-.21.42-.23,1.31.19,1.52.42.21,1.13-.33,1.34-.75Z" style="fill: #435b3c; stroke-width: 0px;"/>
    <path d="M104.71,100.1c-.46.05-.79.48-.74.95s.47.81.93.76c.46-.05,1.22-.53,1.17-1-.05-.47-.9-.76-1.36-.71Z" style="fill: #435b3c; stroke-width: 0px;"/>
    <path d="M105.91,103.21c-.2.42,0,.93.43,1.13.43.2.94.02,1.14-.4.2-.42.19-1.32-.25-1.52-.43-.2-1.12.37-1.32.79Z" style="fill: #435b3c; stroke-width: 0px;"/>
    <path d="M108.17,101.78c.43.17.93-.04,1.1-.48.18-.44-.03-.94-.46-1.11-.43-.17-1.33-.12-1.5.32-.18.44.43,1.1.86,1.27Z" style="fill: #435b3c; stroke-width: 0px;"/>
    <path d="M163.23,177.69c.43.17.93-.04,1.1-.48.18-.44-.03-.94-.46-1.11s-1.33-.12-1.5.32c-.18.44.43,1.1.86,1.27Z" style="fill: #435b3c; stroke-width: 0px;"/>
    <path d="M163.39,180.84c-.1.45.19.91.65,1.01.46.1.92-.18,1.03-.63s-.09-1.33-.56-1.43c-.46-.1-1.02.6-1.12,1.05Z" style="fill: #435b3c; stroke-width: 0px;"/>
    <path d="M166.21,175.7c.43.17.93-.04,1.1-.48.18-.44-.03-.94-.46-1.11s-1.33-.12-1.5.32c-.18.44.43,1.1.86,1.27Z" style="fill: #435b3c; stroke-width: 0px;"/>
    <path d="M162.02,175.26c.43-.18.63-.68.44-1.12-.18-.44-.68-.65-1.11-.47-.43.18-1.02.85-.84,1.29.18.44,1.08.48,1.51.3Z" style="fill: #435b3c; stroke-width: 0px;"/>
    <path d="M109.43,103.18c-.36.3-.4.84-.09,1.2.31.36.84.42,1.2.12s.73-1.11.42-1.48c-.31-.36-1.17-.14-1.53.16Z" style="fill: #435b3c; stroke-width: 0px;"/>
    <path d="M164.22,185.25c.46.03.87-.32.9-.8.03-.47-.31-.89-.78-.92-.46-.03-1.3.29-1.33.77-.03.47.74.92,1.21.95Z" style="fill: #435b3c; stroke-width: 0px;"/>
    <path d="M166.7,182.21c-.36.3-.4.84-.09,1.2s.84.42,1.2.12c.36-.3.73-1.11.42-1.48s-1.17-.14-1.53.16Z" style="fill: #435b3c; stroke-width: 0px;"/>
    <path d="M158.73,182.21c-.36.3-.4.84-.09,1.2s.84.42,1.2.12c.36-.3.73-1.11.42-1.48s-1.17-.14-1.53.16Z" style="fill: #435b3c; stroke-width: 0px;"/>
  </g>
  <path d="M52.31,256.77c1.64-1.37,5.53-6.07,7.72-6.07,2.43,0,5.6,1.81,7.84,2.61,5.31,1.89,12.99,2.12,17.65,4.8-3.92,1.55-9.95,4.25-10.88,8.82-1.3,6.46,5.52,5.81,8.81,2.36,1.29-1.35,6.2-11.02,7.89-10.48,6.97,2.22,13.97,4.36,20.97,6.51-4.08,1.4-18.29,6.69-10.62,13.19,6.1,5.18,13.26-7.67,15.21-11.2,2.6,1.8,4.88,3.57,7.11,5.79,1.94,1.94,3.02,8.44,6.18,6.39,3.16-2.05-6.71-10.94-11-13.51-3.71-2.23-7.7-3.42-11.83-4.71-4.08-1.28-6.43-.79-5.11-4.8,1-3.02,1.17-15.91-4.53-15.63-6.44.32.53,15.16,1.07,17.63-8.87-2.48-17.89-3.89-26.83-6.13,1.12-3.29,5.66-16.71-1.65-17.59-7.4-.9-3.52,13.31-2.28,16.12-4.03-1.27-13.84-4.11-15.92-7.99-1.59-2.97,4.21-9.78,1.85-15.7-1.66-4.16-5.64-7.97-7.99-1.14-1.53,4.44-1.13,7.97.1,12.34-2.91-2.33-6.01-4.36-8.04-7.48-2.29-3.53-2.23-7.82-2.85-11.84-.57-3.76-1.2-8.46-4.56-10.87-3.08-2.21-7.14-2.09-8.54,2.26-2.34,7.26,4.88,15.62,10.84,19.26,4.07,2.49,7.51,7.06,11.2,10.14,3.6,3,7.4,5.45,11.38,7.99-4.41.29-11.89.48-13.47,5.61-1.87,6.08,4.69,7.97,10.25,3.31ZM33.72,227.45c-3.29-2.49-14.76-13.52-7.73-17.77,5.64-3.41,7.53,15.96,7.73,17.77ZM49.99,240.09c-.42-.6-.71-1.08-.92-1.47-2.34-4.1-3.3-11.9-.08-13.04s3.77,7.82,1,14.51ZM69.5,237.01c2.37-.09,2.74,9.77.53,14.19-3.49-3.99-2.9-14.1-.53-14.19ZM99.93,255.13c-1.31-3.87-4.92-10.85-2.12-11.29,2.8-.44,3.22,7.33,2.12,11.29ZM113.53,267.64c1.24,3.04-7.12,12.58-11.18,8.93-4.06-3.65,6.63-7.62,11.18-8.93ZM84.85,260.71c.33-.14.91-.29,1.85-.46-1.21,1.99-5.53,10.93-8.79,10.27-2.41-.49.26-4.95.67-5.51,1.56-2.1,3.76-3.52,6.27-4.3ZM44.46,255.59c-1.61-4.35,7.17-5.29,10.52-5.06.22,0,.47.03.76.08-1.11.97-9.43,10-11.28,4.98Z" style="fill: #4d807f; stroke-width: 0px;"/>
  <path d="M85,291.98c-3.63,6.58-6.16,12.6-8.09,19.89-.76,2.87,3.93-.44,4.28-.59,3.25-1.36,6.95-1.85,10.43-2.23,11.62-1.28,35.06,2.66,32.88-16.25-.36-3.13-2.28-3.77.32-5.91,1.74-1.43,5.19-5.2,4.91-7.66-.93-8.08-7.64,4.2-8.92,6-10.03-10.3-29.36-4.94-35.82,6.75ZM80.54,304.74c1.13-2.63,2.25-5.26,3.38-7.89,1.83.48,3.66.97,5.49,1.45-2.96,2.14-5.91,4.29-8.87,6.43ZM84.75,295.48c2.21-3.6,3.95-8.62,8.79-7.32,4.02,1.08,7.25,3.11,10.8,5.19-3.65,1.07-7.72,1.96-11.12,3.7-2.6,1.33-5.33-1.58-8.46-1.57ZM91,307.3c-3.76.44-7.52,1.05-11.11,2.27,2.88-3.52,5.48-6.58,9.73-8.49.61-.28,6.94-3.06,7.25-2.49,1.56,2.79-3.54,8.44-5.87,8.71ZM122.6,291.94c.63,2.3.47,4.97-.36,7.19-1.62,4.32-7.05,7.95-11.72,7.12,2.17-4.43,3.39-8.17,4.33-13.01,2.48-1.26,6.68-5.19,7.75-1.3ZM112.81,293.94c-.12,3.01-2.21,12.6-6.26,12.72-1.44.04-9.93.38-10.1-.21.53-.88,3.15-8.7,4.36-8.85s7.64-2.53,12.01-3.66ZM119.39,286.33c-3.6,2.36-8.83,6.66-13.46,5.76-2.21-.43-3.86-2.4-5.8-3.43-2.3-1.22-4.8-1.98-7.32-2.59,8.05-5.72,19.01-6.32,26.58.26Z" style="fill: #4d807f; stroke-width: 0px;"/>
  <path d="M63.19,124.1c.5-2.52-1.06-5.58-2.6-7.46-.8-.98-3.02-2.38-3.16-3.66,3.72-.73,10.61-4.71,9.32-9.39-1.48-5.39-5.23-5.09-9.81-4.12.71-4.74,2.45-11.02-3.5-12.96-6.13-2-10.65,4.04-12.23,9.21-1.9-4.1-5.94-8.53-10.61-5.19-5.04,3.61-2.7,10.76.84,14.64-3.18.34-8.03.48-8.52,4.7-.61,5.31,3.63,6.13,7.6,6.9-2.46,2.46-7.39,7.15-2.7,10.37,4.73,3.25,8.46.63,10.99-2.2,1,4.14,2.23,9.47,7.34,10.08,6.81.82,6.1-5.88,5.82-10.53,2.71,1.36,10.1,5.22,11.23-.41ZM64.96,104.8c.13,3.51-5.48,6.57-8.42,7.16-.62.12-5.66.61-5.6-.57.06-1.2,3.81-1.42,3.9-3.08.09-1.65-2.98-.54-4,1.15-2.48-4.88,13.74-14.43,14.12-4.67ZM52.58,88.04c4.14.88,3.74,7.05,2.76,9.95-1.17,3.48-3.91,5.48-6.5,7.88-4.22-2.55.1-3.62-.19-6.99-.21-2.37-3.66,3.58-3.57,5.05-5.81-.91-.38-17.57,7.49-15.9ZM30.68,100.65c-1.25-2.8-2.03-5.92.55-8.27,6.12-5.58,9.61,8,10.66,12.11-3.08,1.66-3.34-4.02-4.91-3.35-1.41.6,1.27,5.13,1.84,6.32-2.91.67-7.13-4.54-8.14-6.8ZM24.64,110.43c.29-3.66,5.09-3.77,7.72-3.19.95.21,7.28,2.29,4.83,4.01-.15-.02-.25-.04-.33-.05-1.38-.23-3.82-1.07-4.02-.09-.2.98,2.91,1.13,4.47,2.02-3.27,2.46-13.17,3.6-12.68-2.7ZM28.44,125.48c-3.91-4.16,7.68-11.6,9.23-9.61-1.34,1.06-4.33,2.79-3.72,4.39.62,1.61,4.63-3.15,5.59-3.87.1,4.34-5.86,14.67-11.11,9.09ZM39.33,110.31c.55-5,5.82-4.93,7.63-3.82,1.81,1.11,2.56,2.62,2.19,5.64-.74,5.92-10.58,5.11-9.82-1.82ZM45.03,132.99c-4.79-2.05-5.13-9.94-3.61-14.08,1-2.72,1.12,2.36,1.13,1.96-.04,1.16.84,3.76,2.12,3.42,1.27-.34-1.11-5.58,1.29-5.72,1.51-.09,3.84,5.54,4.22,6.7,1.25,3.84.36,10.08-5.14,7.72ZM48.76,117.25c2.38.66,4.62,2.44,5.14,1.2.52-1.24-3.78-1.62-3.13-3.58.51-1.53,2.4-1.05,3.53-.67,3.01.99,6.89,5.69,7.1,8.96.34,5.31-12.75-1.04-12.65-5.91Z" style="fill: #d54851; stroke-width: 0px;"/>
  <path d="M121.07,221.96c-.41-1.44-2.08-2.62-3.42-3.19-.7-.3-2.27-.45-2.69-1.08,1.81-1.35,4.45-5.2,2.49-7.29-2.26-2.41-4.2-1.28-6.4.41-.9-2.64-1.66-6.35-5.39-5.81-3.84.56-4.65,4.86-4.1,7.96-2.13-1.63-5.51-2.88-7.12.07-1.74,3.18,1.45,6.28,4.41,7.37-1.63,1-4.2,2.34-3.32,4.65,1.1,2.91,3.62,2.24,5.96,1.6-.66,1.92-2.05,5.63,1.35,6.08,3.43.46,4.73-1.87,5.33-4,1.66,1.88,3.76,4.33,6.68,3.32,3.89-1.35,1.7-4.64.29-6.97,1.83,0,6.86.08,5.94-3.13ZM116.81,211.49c1.02,1.79-1.18,4.83-2.6,5.9-.3.22-2.89,1.79-3.17,1.16-.29-.64,1.67-1.73,1.27-2.61-.4-.88-1.76.49-1.84,1.63-2.66-1.88,3.51-11.06,6.35-6.09ZM105.6,206.02c2.47-.62,3.92,2.68,4.18,4.44.31,2.11-.63,3.86-1.37,5.77-2.96-.23-.92-1.9-1.99-3.57-.75-1.18-1,2.81-.56,3.55-3.38,1.04-4.95-9.01-.26-10.19ZM97.2,218.26c-1.43-1.13-2.7-2.54-1.94-4.43,1.79-4.48,7.34,1.65,9.02,3.51-1.21,1.66-2.89-1.22-3.55-.46-.6.68,2.07,2.33,2.7,2.8-1.39,1.11-5.07-.5-6.23-1.41ZM96.59,224.89c-.83-1.97,1.73-3.28,3.3-3.66.57-.14,4.54-.71,3.69.82-.09.03-.15.05-.19.06-.81.24-2.35.44-2.19,1,.16.56,1.88-.17,2.96-.11-1.1,2.13-6.13,5.29-7.57,1.89ZM102.71,231.71c-3.24-1.14,1.01-8.01,2.38-7.38-.44.9-1.58,2.57-.82,3.24.77.67,1.65-2.83,1.97-3.46,1.23,2.22.8,9.13-3.53,7.6ZM104.47,221.01c-1.06-2.74,1.81-4.07,3.08-3.96,1.28.1,2.09.69,2.7,2.36,1.2,3.26-4.32,5.4-5.79,1.61ZM113.68,231.29c-3.14.18-5.45-3.82-5.75-6.36-.2-1.67,1.24.93,1.14.72.29.61,1.47,1.73,2.07,1.22.6-.51-2.11-2.61-.85-3.3.79-.44,3.56,1.87,4.08,2.38,1.71,1.67,2.92,5.13-.69,5.34ZM111.44,222.16c1.46-.28,3.15.06,3.1-.71-.05-.78-2.47.14-2.65-1.04-.14-.92,1.01-1.17,1.72-1.27,1.89-.27,5.25,1.16,6.25,2.8,1.62,2.66-7.15,2.78-8.42.23Z" style="fill: #d54851; stroke-width: 0px;"/>
  <path d="M216.73,130.16c-.64-2.33-3.24-4.24-5.32-5.17-1.09-.49-3.54-.72-4.19-1.74,2.81-2.18,6.92-8.41,3.87-11.8-3.51-3.9-6.53-2.07-9.96.67-1.39-4.27-2.58-10.28-8.39-9.4-5.98.9-7.24,7.87-6.39,12.88-3.32-2.64-8.57-4.66-11.09.11-2.71,5.15,2.26,10.17,6.87,11.94-2.53,1.62-6.54,3.78-5.17,7.53,1.72,4.71,5.63,3.62,9.28,2.59-1.03,3.1-3.19,9.11,2.1,9.84,5.34.74,7.36-3.03,8.29-6.47,2.58,3.05,5.85,7.01,10.4,5.38,6.06-2.18,2.64-7.5.45-11.29,2.84,0,10.68.13,9.25-5.07ZM210.1,113.21c1.59,2.89-1.83,7.82-4.05,9.55-.46.36-4.5,2.89-4.94,1.88-.45-1.03,2.6-2.8,1.98-4.22-.62-1.43-2.73.8-2.87,2.65-4.13-3.05,5.46-17.89,9.88-9.86ZM192.66,104.36c3.84-1,6.1,4.34,6.51,7.19.48,3.41-.98,6.24-2.14,9.35-4.61-.37-1.44-3.08-3.1-5.78-1.17-1.9-1.56,4.55-.87,5.74-5.26,1.68-7.71-14.59-.4-16.49ZM179.59,124.16c-2.23-1.82-4.19-4.12-3.02-7.17,2.79-7.26,11.43,2.67,14.04,5.67-1.89,2.69-4.49-1.97-5.53-.75-.93,1.1,3.23,3.77,4.2,4.53-2.16,1.79-7.89-.81-9.69-2.28ZM178.64,134.9c-1.3-3.2,2.69-5.3,5.14-5.93.88-.23,7.07-1.14,5.74,1.33-.14.05-.23.07-.3.09-1.26.39-3.65.71-3.41,1.62.24.91,2.92-.27,4.6-.18-1.71,3.44-9.54,8.56-11.78,3.07ZM188.16,145.94c-5.04-1.85,1.57-12.97,3.7-11.95-.68,1.46-2.47,4.16-1.27,5.25,1.19,1.09,2.56-4.59,3.06-5.6,1.91,3.6,1.25,14.78-5.5,12.3ZM190.91,128.62c-1.65-4.43,2.81-6.58,4.8-6.41,1.99.17,3.26,1.12,4.21,3.81,1.87,5.27-6.73,8.74-9.01,2.6ZM205.23,145.25c-4.88.29-8.49-6.19-8.95-10.29-.31-2.7,1.93,1.51,1.78,1.17.45.99,2.29,2.8,3.21,1.98s-3.28-4.22-1.33-5.34c1.23-.71,5.55,3.03,6.36,3.85,2.66,2.7,4.54,8.3-1.07,8.64ZM201.74,130.48c2.28-.45,4.9.11,4.82-1.16-.08-1.26-3.85.23-4.13-1.69-.22-1.49,1.58-1.89,2.68-2.05,2.94-.43,8.17,1.88,9.73,4.53,2.52,4.31-11.14,4.49-13.1.36Z" style="fill: #4d807f; stroke-width: 0px;"/>
  <g>
    <path d="M275.25,91.35c2.65-.05,3.54,2.08,3.52,3.29-.03,1.57-1.74,2.9-3.71,2.86-2.18-.04-3.42-1.3-3.45-3.5,0-1.15.99-2.6,3.64-2.65Z" style="fill: #fca67f; stroke-width: 0px;"/>
    <path d="M264.69,92.62c3.52-.28,4.38,4.61-.33,4.85-.91.05-2.16-1.26-2.12-2.14.05-1.27,1.4-2.63,2.45-2.71Z" style="fill: #fca67f; stroke-width: 0px;"/>
    <path d="M270.67,100.87c1.12.02,3.15,0,3.14,2.03,0,2.3-2.3,2.98-3.33,2.94-2.16-.06-3.42-.74-3.42-1.85-.03-1.88,1.45-3.16,3.61-3.12Z" style="fill: #fca67f; stroke-width: 0px;"/>
  </g>
  <g>
    <path d="M6.98,72.11c-2.57-.07-3.45,2.68-3.43,4.25.02,2.04,1.68,3.77,3.59,3.72,2.12-.04,3.33-1.68,3.37-4.52.01-1.49-.96-3.38-3.53-3.45Z" style="fill: #4d807f; stroke-width: 0px;"/>
    <path d="M17.23,73.81c-3.42-.37-4.27,5.96.3,6.29.88.06,2.11-1.63,2.07-2.77-.04-1.64-1.35-3.41-2.37-3.52Z" style="fill: #4d807f; stroke-width: 0px;"/>
    <path d="M11.38,84.48c-1.09.02-3.06,0-3.06,2.63,0,2.98,2.23,3.87,3.22,3.83,2.1-.07,3.32-.95,3.34-2.39.03-2.44-1.39-4.11-3.5-4.07Z" style="fill: #4d807f; stroke-width: 0px;"/>
  </g>
  <g>
    <path d="M13.01,217.62c2.65-.05,3.54,2.08,3.52,3.29-.03,1.57-1.74,2.9-3.71,2.86-2.18-.04-3.42-1.3-3.45-3.5,0-1.15.99-2.6,3.64-2.65Z" style="fill: #fca67f; stroke-width: 0px;"/>
    <path d="M2.45,218.89c3.52-.28,4.38,4.61-.33,4.85-.9.05-2.16-1.26-2.12-2.14.05-1.27,1.4-2.63,2.45-2.71Z" style="fill: #fca67f; stroke-width: 0px;"/>
    <path d="M8.43,227.14c1.12.02,3.15,0,3.14,2.03,0,2.3-2.3,2.98-3.33,2.94-2.16-.06-3.42-.74-3.42-1.85-.03-1.88,1.45-3.16,3.61-3.12Z" style="fill: #fca67f; stroke-width: 0px;"/>
  </g>
  <g>
    <path d="M43.41,301.59c2.65-.05,3.54,2.08,3.52,3.29-.03,1.57-1.74,2.9-3.71,2.86-2.18-.04-3.42-1.3-3.45-3.5,0-1.15.99-2.6,3.64-2.65Z" style="fill: #4d807f; stroke-width: 0px;"/>
    <path d="M32.85,302.87c3.52-.28,4.38,4.61-.33,4.85-.91.05-2.16-1.26-2.12-2.14.05-1.27,1.4-2.63,2.45-2.71Z" style="fill: #4d807f; stroke-width: 0px;"/>
    <path d="M38.83,311.12c1.12.02,3.15,0,3.14,2.03,0,2.3-2.3,2.98-3.33,2.94-2.16-.06-3.42-.74-3.42-1.85-.03-1.88,1.45-3.16,3.61-3.12Z" style="fill: #4d807f; stroke-width: 0px;"/>
  </g>
  <g>
    <path d="M235.76,302.72c2.65-.05,3.54,2.08,3.52,3.29-.03,1.57-1.74,2.9-3.71,2.86-2.18-.04-3.42-1.3-3.45-3.5,0-1.15.99-2.6,3.64-2.65Z" style="fill: #c8d89e; stroke-width: 0px;"/>
    <path d="M225.2,303.99c3.52-.28,4.38,4.61-.33,4.85-.91.05-2.16-1.26-2.12-2.14.05-1.27,1.4-2.63,2.45-2.71Z" style="fill: #c8d89e; stroke-width: 0px;"/>
    <path d="M231.18,312.24c1.12.02,3.15,0,3.14,2.03,0,2.3-2.3,2.98-3.33,2.94-2.16-.06-3.42-.74-3.42-1.85-.03-1.88,1.45-3.16,3.61-3.12Z" style="fill: #fca67f; stroke-width: 0px;"/>
  </g>
  <g>
    <path d="M187.08,1.53c1.16-1.98,3.83-1.67,5.11-1.1,1.67.74,2.3,2.62,1.36,4.05-1.03,1.6-2.95,1.94-5.3.96-1.23-.52-2.33-1.93-1.17-3.91Z" style="fill: #435b3c; stroke-width: 0px;"/>
    <path d="M183.63,9.94c1.31-2.74,6.92-1.13,5.02,2.46-.36.69-2.33,1.03-3.25.59-1.33-.62-2.16-2.24-1.77-3.06Z" style="fill: #435b3c; stroke-width: 0px;"/>
    <path d="M195.16,9.28c.53-.82,1.44-2.33,3.6-1.4,2.45,1.06,2.13,3.07,1.62,3.81-1.05,1.58-2.35,2.19-3.54,1.69-2.02-.84-2.71-2.52-1.69-4.11Z" style="fill: #fca67f; stroke-width: 0px;"/>
  </g>
  <g>
    <path d="M257.92,192.28c2.65-.05,3.54,2.08,3.52,3.29-.03,1.57-1.74,2.9-3.71,2.86-2.18-.04-3.42-1.3-3.45-3.5,0-1.15.99-2.6,3.64-2.65Z" style="fill: #fca67f; stroke-width: 0px;"/>
    <path d="M247.37,193.55c3.52-.28,4.38,4.61-.33,4.85-.91.05-2.16-1.26-2.12-2.14.05-1.27,1.4-2.63,2.45-2.71Z" style="fill: #fca67f; stroke-width: 0px;"/>
    <path d="M253.35,201.8c1.12.02,3.15,0,3.14,2.03,0,2.3-2.3,2.98-3.33,2.94-2.16-.06-3.42-.74-3.42-1.85-.03-1.88,1.45-3.16,3.61-3.12Z" style="fill: #fca67f; stroke-width: 0px;"/>
  </g>
</svg>